# xmcd
#
# Track frame offsets: 
#        150
#        18121
#        37319
#        55682
#        74695
#        93251
#        117001
#        138937
#        158887
#
# Disc length: 2484 seconds
#
# Revision: 2
# Processed by: cddbd v1.5.1PL2 Copyright (c) Steve Scherf et al.
# Submitted via: ExactAudioCopy v0.95b3
#
DISCID=7309b209
DTITLE=Света - Другой альбом
DYEAR=2000
DGENRE=
TTITLE0=Светит луна
TTITLE1=Мое солнце
TTITLE2=Оригинал увидимся - Другой
TTITLE3=Другой оригинал - Уходи
TTITLE4=Зеркала
TTITLE5=Любовь
TTITLE6=Так больше нельзя
TTITLE7=Дорога в аэропорт
TTITLE8=Увидимся (ППК клаб микс)
EXTD=
EXTT0=
EXTT1=
EXTT2=
EXTT3=
EXTT4=
EXTT5=
EXTT6=
EXTT7=
EXTT8=
PLAYORDER=
